<svg width="52" height="52" viewBox="0 0 52 52" fill="none" xmlns="http://www.w3.org/2000/svg">
<path d="M50.0285 25.851C50.0285 38.9873 39.211 49.6749 25.8189 49.6749C12.4269 49.6749 1.60938 38.9873 1.60938 25.851C1.60938 12.7147 12.4269 2.0271 25.8189 2.0271C39.211 2.0271 50.0285 12.7147 50.0285 25.851Z" stroke="white" stroke-width="3"/>
<path d="M37.1737 19.5201C37.1737 25.6634 32.1114 30.6821 25.8189 30.6821C19.5264 30.6821 14.4641 25.6634 14.4641 19.5201C14.4641 13.3768 19.5264 8.35815 25.8189 8.35815C32.1114 8.35815 37.1737 13.3768 37.1737 19.5201Z" stroke="white" stroke-width="3"/>
<path d="M46.4706 38.0558C47.2581 38.3129 48.1049 37.8828 48.3619 37.0952C48.6189 36.3077 48.1889 35.4609 47.4013 35.2039L46.4706 38.0558ZM24.8047 32.2758L24.6546 30.7833L24.8047 32.2758ZM46.2207 37.9743L46.4706 38.0558L47.4013 35.2039L47.1515 35.1223L46.2207 37.9743ZM23.8854 33.8758L24.9549 33.7682L24.6546 30.7833L23.5851 30.8909L23.8854 33.8758ZM5.20066 38.0446C11.2408 35.9163 17.5134 34.5168 23.8854 33.8758L23.5851 30.8909C16.9755 31.5557 10.469 33.0074 4.20364 35.2151L5.20066 38.0446ZM26.5186 33.7728C33.1959 34.479 39.8393 35.8917 46.2207 37.9743L47.1515 35.1223C40.5684 32.9739 33.7187 31.5176 26.8342 30.7894L26.5186 33.7728ZM26.8342 30.7894C26.1125 30.7131 25.3785 30.7105 24.6546 30.7833L24.9549 33.7682C25.4722 33.7162 25.9998 33.7179 26.5186 33.7728L26.8342 30.7894Z" fill="white"/>
</svg>
